# xmcd
#
# Track frame offsets:
#	150
#	15757
#	36031
#	52446
#	66752
#	81678
#	106565
#	127922
#	144844
#	157050
#	169116
#	191720
#	200432
#	214142
#
# Disc length: 3101 seconds
# Revision: 0
# Processed by: cddbd v1.5.2PL0 Copyright (c) Steve Scherf et al.
# Submitted via: dBpowerAMP V12.0
#
DISCID=c10c1b0e
DTITLE=Andrew Bazeley - Andrew Bazeley
DYEAR=2004
DGENRE=Blues
TTITLE0=I Be's Troubled
TTITLE1=Where My Baby Used To Lay
TTITLE2=Banty Rooster Blues
TTITLE3=Avon Delta Blues
TTITLE4=CC Rider-Keep Your Hands Off Her
TTITLE5=Sweet Home Chicago
TTITLE6=Butcher's Boy
TTITLE7=Redskin Blues
TTITLE8=Bring Me A Little Water Sylvie
TTITLE9=32-20 Blues
TTITLE10=Travellin' Riverside Blues
TTITLE11=Ain't Misbehavin'
TTITLE12=Too Late
TTITLE13=John The Revelator
EXTD=
EXTT0=
EXTT1=
EXTT2=
EXTT3=
EXTT4=
EXTT5=
EXTT6=
EXTT7=
EXTT8=
EXTT9=
EXTT10=
EXTT11=
EXTT12=
EXTT13=
PLAYORDER=
